<svg xmlns="http://www.w3.org/2000/svg" width="1000" height="800" viewBox="0 0 1000 800" role="img" aria-label="Pure Coconut WATER package illustration">
  <defs><linearGradient id="bg" x1="0" y1="0" x2="1" y2="1"><stop stop-color="#c8eff7"/><stop offset="1" stop-color="#bdebcf"/></linearGradient><radialGradient id="spot"><stop stop-color="#ffffff"/><stop offset="1" stop-color="#f3f7f4"/></radialGradient><filter id="shadow" x="-30%" y="-30%" width="160%" height="180%"><feDropShadow dx="0" dy="24" stdDeviation="20" flood-color="#18312c" flood-opacity=".18"/></filter></defs>
  <rect width="1000" height="800" rx="54" fill="url(#bg)"/><circle cx="100" cy="120" r="48" fill="#fff" opacity=".35"/><circle cx="900" cy="670" r="90" fill="#fff" opacity=".28"/><path d="M0 650C220 560 320 760 520 680s310-70 480 25v95H0Z" fill="#fff" opacity=".35"/>
  <g transform=""><g><circle cx="224" cy="512" r="78" fill="#6b9a4a"/><circle cx="224" cy="512" r="58" fill="#fffdf5"/><circle cx="740" cy="506" r="73" fill="#6b9a4a"/><circle cx="740" cy="506" r="54" fill="#fffdf5"/></g><path d="M210 431c18-47 52-76 99-87" stroke="#0b7a55" stroke-width="15" stroke-linecap="round"/></g><g filter="url(#shadow)"><rect x="405" y="130" width="190" height="80" rx="24" fill="#0d6d65"/><path d="M370 240c0-50 40-90 90-90h80c50 0 90 40 90 90v310c0 52-42 94-94 94h-72c-52 0-94-42-94-94V240Z" fill="#f7fffc"/><path d="M389 265h222v225H389z" fill="#bceef2"/><text x="500" y="330" text-anchor="middle" font-size="35" font-weight="900" fill="#087a71">Pure Coconut</text><text x="500" y="378" text-anchor="middle" font-size="44" font-weight="900" fill="#18312c">WATER</text><path d="M462 433c42-52 74-52 79 0-25 26-52 26-79 0Z" fill="#0b7a55"/></g>
  <g fill="#18312c" opacity=".18"><circle cx="86" cy="630" r="10"/><circle cx="910" cy="112" r="14"/><circle cx="846" cy="183" r="7"/></g>
</svg>