<svg xmlns="http://www.w3.org/2000/svg" width="1000" height="800" viewBox="0 0 1000 800" role="img" aria-label="Weeknight RAMEN KIT serving detail">
  <defs><linearGradient id="bg" x1="0" y1="0" x2="1" y2="1"><stop stop-color="#e8d9ff"/><stop offset="1" stop-color="#ffcf8c"/></linearGradient><radialGradient id="spot"><stop stop-color="#ffffff"/><stop offset="1" stop-color="#f3f7f4"/></radialGradient><filter id="shadow" x="-30%" y="-30%" width="160%" height="180%"><feDropShadow dx="0" dy="24" stdDeviation="20" flood-color="#18312c" flood-opacity=".18"/></filter></defs>
  <rect width="1000" height="800" rx="54" fill="url(#bg)"/><circle cx="100" cy="120" r="48" fill="#fff" opacity=".35"/><circle cx="900" cy="670" r="90" fill="#fff" opacity=".28"/><path d="M0 650C220 560 320 760 520 680s310-70 480 25v95H0Z" fill="#fff" opacity=".35"/>
  <g transform="translate(0 30) scale(1.18)"><g fill="none" stroke="#563686" stroke-width="12" stroke-linecap="round"><path d="M116 520c45-63 112-91 201-82"/><path d="M126 548c55-55 118-77 190-65"/><path d="M650 518c46-59 108-84 186-76"/><path d="M661 548c49-50 108-70 177-60"/></g><g fill="#0b7a55"><circle cx="201" cy="436" r="13"/><circle cx="755" cy="441" r="13"/></g></g><g filter="url(#shadow)"><ellipse cx="500" cy="425" rx="270" ry="180" fill="#fffdf7"/><ellipse cx="500" cy="420" rx="220" ry="130" fill="url(#spot)"/><text x="500" y="390" text-anchor="middle" font-size="45" font-weight="900" fill="#563686">Weeknight</text><text x="500" y="445" text-anchor="middle" font-size="56" font-weight="900" fill="#18312c">RAMEN KIT</text><text x="500" y="495" text-anchor="middle" font-size="18" font-weight="800" fill="#60736e">SERVING IDEA</text></g>
  <g fill="#18312c" opacity=".18"><circle cx="86" cy="630" r="10"/><circle cx="910" cy="112" r="14"/><circle cx="846" cy="183" r="7"/></g>
</svg>